<?xml version='1.0' encoding='UTF-8' standalone='no'?>
<!-- Created with Fritzing (http://www.fritzing.org/) -->
<svg xmlns:svg='http://www.w3.org/2000/svg' xmlns='http://www.w3.org/2000/svg' version='1.2' baseProfile='tiny' x='0in' y='0in' width='2.67471in' height='2.42917in' viewBox='0 0 192.579 174.9' >
<g partID='59780'><g transform='translate(154.441,23.194)' ><g transform='matrix(0,1,1,0,0,0)'  ><g id="schematic">
<line stroke="#000000" y1="11.159" y2="11.159" fill="none" stroke-width="0.7" x1="19.8" stroke-linecap="round" x2="21.6"/>
<line stroke="#000000" y1="11.159" y2="7.559" fill="none" stroke-width="0.7" x1="7.2" stroke-linecap="round" x2="19.8"/>
<circle stroke="#000000" r="0.36" cx="7.2" fill="none" stroke-width="0.7" cy="11.159"/>
<circle stroke="#000000" r="0.36" cx="21.6" fill="none" stroke-width="0.7" cy="11.159"/>
<g transform="matrix(1, 0, 0, 1, 2.7612, 2.718)">
<text font-family="'DroidSans'" font-size="2" fill="#787878">1</text>
</g>
<g transform="matrix(1, 0, 0, 1, 24.604, 2.718)">
<text font-family="'DroidSans'" font-size="2" fill="#787878">2</text>
</g>
<g transform="matrix(1, 0, 0, 1, 2.7612, 16.843)">
<text font-family="'DroidSans'" font-size="2" fill="#787878">1</text>
</g>
<g transform="matrix(1, 0, 0, 1, 24.604, 16.843)">
<text font-family="'DroidSans'" font-size="2" fill="#787878">2</text>
</g>
<line stroke="#000000" y1="3.96" y2="18.359" fill="none" stroke-width="0.7" x1="21.6" stroke-linecap="round" x2="21.6"/>
<line stroke="#000000" y1="3.96" y2="18.359" fill="none" stroke-width="0.7" x1="7.2" stroke-linecap="round" x2="7.2"/>
<line stroke="#555555" id="connector3pin" y1="18.359" y2="18.359" fill="none" stroke-width="0.7" x1="0.322" stroke-linecap="round" x2="7.2"/>
<line stroke="#555555" id="connector2pin" y1="3.96" y2="3.96" fill="none" stroke-width="0.7" x1="0.322" stroke-linecap="round" x2="7.2"/>
<g points="0.822,4.281,0.837,3.64,0,3.64,0,4.281" id="connector2terminal" fill="none"/>
<g points="0.822,18.694,0.837,18.053,0,18.053,0,18.694" id="connector3terminal" fill="none"/>
<line stroke="#555555" id="connector1pin" y1="18.359" y2="18.359" fill="none" stroke-width="0.7" x1="28.451" stroke-linecap="round" x2="21.6"/>
<g id="connector1terminal" height="0.672" x="27.806" y="18.006" fill="none" width="0.994"/>
<g id="connector0terminal" height="0.719" x="27.712" y="3.6" fill="none" width="1.088"/>
<line stroke="#555555" id="connector0pin" y1="3.96" y2="3.96" fill="none" stroke-width="0.7" x1="28.451" stroke-linecap="round" x2="21.6"/>
</g>
</g></g></g><g partID='58530'><g transform='translate(146.7,123.234)' ><g transform='matrix(-1,0,0,1,0,0)'  ><g id="schematic">
<g>
<path d="M13.5,14.966L9.9,14.966c-0.193,0,-0.35,-0.156,-0.35,-0.35s0.156,-0.35,0.35,-0.35L13.5,14.266c0.193,0,0.35,0.156,0.35,0.35S13.694,14.966,13.5,14.966z"/>
</g>
<g>
<path d="M9.9,14.966L6.3,14.966c-0.193,0,-0.35,-0.156,-0.35,-0.35s0.157,-0.35,0.35,-0.35l3.6,0c0.193,0,0.35,0.156,0.35,0.35S10.093,14.966,9.9,14.966z"/>
</g>
<g>
<polygon points="9.9,14.616,6.3,7.416,9.9,7.416,13.5,7.416" fill="#FFFFFF"/>
<path d="M9.9,15.398L5.734,7.066l8.333,0L9.9,15.398zM6.866,7.766L9.9,13.834l3.034,-6.068L6.866,7.766z"/>
</g>
<g>
<path d="M9.9,14.841c-0.124,0,-0.225,-0.101,-0.225,-0.225l0,-7.2c0,-0.124,0.101,-0.225,0.225,-0.225s0.225,0.101,0.225,0.225l0,7.2C10.124,14.74,10.024,14.841,9.9,14.841z"/>
</g>
<g>
<path d="M1.8,12.141c-0.058,0,-0.115,-0.021,-0.159,-0.065c-0.088,-0.088,-0.088,-0.23,0,-0.318l2.34,-2.341c0.088,-0.088,0.23,-0.088,0.318,0s0.088,0.23,0,0.318l-2.34,2.341C1.915,12.12,1.858,12.141,1.8,12.141z"/>
</g>
<g>
<path d="M2.16,15.381c-0.058,0,-0.115,-0.021,-0.159,-0.065c-0.088,-0.088,-0.088,-0.23,0,-0.318l2.34,-2.34c0.088,-0.088,0.23,-0.088,0.318,0s0.088,0.23,0,0.318l-2.34,2.34C2.276,15.359,2.218,15.381,2.16,15.381z"/>
</g>
<g id="connector0pin">
<path d="M9.9,22.166c-0.193,0,-0.35,-0.156,-0.35,-0.35l0,-7.2c0,-0.193,0.156,-0.35,0.35,-0.35s0.35,0.156,0.35,0.35l0,7.2C10.249,22.01,10.093,22.166,9.9,22.166z" fill="#787878"/>
</g>
<g id="connector0terminal">
<rect height="0.001" x="9.9" y="21.816" fill="none" width="0.001"/>
</g>
<g transform="matrix(1, 0, 0, 1, 3.429, 6.4262)">
<g>
<g transform="rotate(270)">
<g>
<g enable-background="new    ">
<path d="M-11.647,5.54l-0.891,0L-12.538,5.388l0.342,-0.372c0.049,-0.053,0.093,-0.101,0.131,-0.145s0.071,-0.086,0.099,-0.128c0.026,-0.042,0.047,-0.084,0.062,-0.125c0.015,-0.043,0.021,-0.088,0.021,-0.138c0,-0.038,-0.005,-0.072,-0.017,-0.102s-0.027,-0.054,-0.047,-0.075c-0.021,-0.02,-0.045,-0.035,-0.073,-0.046s-0.06,-0.016,-0.094,-0.016c-0.062,0,-0.118,0.013,-0.167,0.038c-0.051,0.024,-0.098,0.057,-0.143,0.096l-0.1,-0.116c0.025,-0.023,0.055,-0.046,0.084,-0.065c0.029,-0.021,0.063,-0.039,0.097,-0.054s0.071,-0.026,0.109,-0.036c0.038,-0.008,0.079,-0.013,0.121,-0.013c0.063,0,0.119,0.009,0.169,0.026c0.051,0.018,0.094,0.043,0.129,0.076c0.035,0.032,0.063,0.072,0.082,0.119c0.019,0.048,0.028,0.101,0.028,0.16c0,0.056,-0.009,0.108,-0.026,0.158c-0.017,0.05,-0.041,0.1,-0.07,0.148c-0.031,0.048,-0.066,0.097,-0.109,0.146c-0.041,0.049,-0.087,0.1,-0.136,0.152L-12.32,5.37l0,0.008l0.673,0L-11.647,5.54z" fill="#787878"/>
</g>
</g>
</g>
</g>
</g>
<g id="connector1pin">
<path d="M9.9,7.766c-0.193,0,-0.35,-0.157,-0.35,-0.35l0,-7.2c0,-0.193,0.156,-0.35,0.35,-0.35s0.35,0.157,0.35,0.35l0,7.2C10.249,7.609,10.093,7.766,9.9,7.766z" fill="#787878"/>
</g>
<g id="connector1terminal">
<polygon points="9.9,0.216,9.901,0.216,9.901,0.216" fill="none"/>
</g>
<g transform="matrix(1, 0, 0, 1, 3.429, 1.3462)">
<g>
<g transform="rotate(270)">
<g>
<g enable-background="new    ">
<path d="M-2.616,5.54l-0.172,0L-2.788,4.648c0,-0.028,0,-0.058,0,-0.09s0.001,-0.063,0.002,-0.095c0.001,-0.032,0.002,-0.063,0.003,-0.092c0.001,-0.028,0.002,-0.054,0.002,-0.076c-0.011,0.012,-0.021,0.021,-0.029,0.03s-0.017,0.017,-0.026,0.024s-0.018,0.016,-0.028,0.025c-0.01,0.008,-0.021,0.019,-0.035,0.03l-0.145,0.118l-0.094,-0.12l0.374,-0.292l0.146,0L-2.618,5.54z" fill="#787878"/>
</g>
</g>
</g>
</g>
</g>
<g>
<path d="M0.18,13.536l1.08,-2.521l1.44,1.438L0.18,13.536z"/>
</g>
<g>
<path d="M0.54,16.776l1.08,-2.521l1.438,1.438L0.54,16.776z"/>
</g>
</g>
</g></g></g><g partID='57520'><g transform='translate(0,8.2501)' ><g id="schematic">
<rect class="interior rect" stroke="#000000" height="135.9" x="14.85" y="14.85" fill="#FFFFFF" stroke-width="0.9" stroke-linecap="round" width="78.3"/>
<line class="pin" stroke="#787878" id="connector61pin" y1="28.8" y2="28.8" fill="none" stroke-width="0.699999" x1="93.2499" x2="107.65" stroke-linecap="round"/>
<text font-family="'Droid Sans'" class="text" stroke="none" text-anchor="end" font-size="3.49999" x="91.8499" stroke-width="0" fill="#8c8c8c" y="29.4999">D0/RX</text>
<g class="terminal" stroke="none" height="0.699999" id="connector61terminal" x="107.65" y="28.4499" fill="none" stroke-width="0" width="0.699999"/>
<line class="pin" stroke="#787878" id="connector62pin" y1="36" y2="36" fill="none" stroke-width="0.699999" x1="93.2499" x2="107.65" stroke-linecap="round"/>
<text font-family="'Droid Sans'" class="text" stroke="none" text-anchor="end" font-size="3.49999" x="91.8499" stroke-width="0" fill="#8c8c8c" y="36.6999">D1/TX</text>
<g class="terminal" stroke="none" height="0.699999" id="connector62terminal" x="107.65" y="35.6499" fill="none" stroke-width="0" width="0.699999"/>
<line class="pin" stroke="#787878" id="connector63pin" y1="43.2" y2="43.2" fill="none" stroke-width="0.699999" x1="93.2499" x2="107.65" stroke-linecap="round"/>
<text font-family="'Droid Sans'" class="text" stroke="none" text-anchor="end" font-size="3.49999" x="91.8499" stroke-width="0" fill="#8c8c8c" y="43.8999">D2</text>
<g class="terminal" stroke="none" height="0.699999" id="connector63terminal" x="107.65" y="42.8499" fill="none" stroke-width="0" width="0.699999"/>
<line class="pin" stroke="#787878" id="connector64pin" y1="50.4" y2="50.4" fill="none" stroke-width="0.699999" x1="93.2499" x2="107.65" stroke-linecap="round"/>
<text font-family="'Droid Sans'" class="text" stroke="none" text-anchor="end" font-size="3.49999" x="91.8499" stroke-width="0" fill="#8c8c8c" y="51.0999">D3 PWM</text>
<g class="terminal" stroke="none" height="0.699999" id="connector64terminal" x="107.65" y="50.0499" fill="none" stroke-width="0" width="0.699999"/>
<line class="pin" stroke="#787878" id="connector65pin" y1="57.6" y2="57.6" fill="none" stroke-width="0.699999" x1="93.2499" x2="107.65" stroke-linecap="round"/>
<text font-family="'Droid Sans'" class="text" stroke="none" text-anchor="end" font-size="3.49999" x="91.8499" stroke-width="0" fill="#8c8c8c" y="58.2999">D4</text>
<g class="terminal" stroke="none" height="0.699999" id="connector65terminal" x="107.65" y="57.2499" fill="none" stroke-width="0" width="0.699999"/>
<line class="pin" stroke="#787878" id="connector66pin" y1="64.8" y2="64.8" fill="none" stroke-width="0.699999" x1="93.2499" x2="107.65" stroke-linecap="round"/>
<text font-family="'Droid Sans'" class="text" stroke="none" text-anchor="end" font-size="3.49999" x="91.8499" stroke-width="0" fill="#8c8c8c" y="65.4999">D5 PWM</text>
<g class="terminal" stroke="none" height="0.699999" id="connector66terminal" x="107.65" y="64.4499" fill="none" stroke-width="0" width="0.699999"/>
<line class="pin" stroke="#787878" id="connector67pin" y1="72" y2="72" fill="none" stroke-width="0.699999" x1="93.2499" x2="107.65" stroke-linecap="round"/>
<text font-family="'Droid Sans'" class="text" stroke="none" text-anchor="end" font-size="3.49999" x="91.8499" stroke-width="0" fill="#8c8c8c" y="72.6999">D6 PWM</text>
<g class="terminal" stroke="none" height="0.699999" id="connector67terminal" x="107.65" y="71.6499" fill="none" stroke-width="0" width="0.699999"/>
<line class="pin" stroke="#787878" id="connector68pin" y1="79.2" y2="79.2" fill="none" stroke-width="0.699999" x1="93.2499" x2="107.65" stroke-linecap="round"/>
<text font-family="'Droid Sans'" class="text" stroke="none" text-anchor="end" font-size="3.49999" x="91.8499" stroke-width="0" fill="#8c8c8c" y="79.8999">D7</text>
<g class="terminal" stroke="none" height="0.699999" id="connector68terminal" x="107.65" y="78.8499" fill="none" stroke-width="0" width="0.699999"/>
<line class="pin" stroke="#787878" id="connector51pin" y1="86.4" y2="86.4" fill="none" stroke-width="0.699999" x1="93.2499" x2="107.65" stroke-linecap="round"/>
<text font-family="'Droid Sans'" class="text" stroke="none" text-anchor="end" font-size="3.49999" x="91.8499" stroke-width="0" fill="#8c8c8c" y="87.0999">D8</text>
<g class="terminal" stroke="none" height="0.699999" id="connector51terminal" x="107.65" y="86.0499" fill="none" stroke-width="0" width="0.699999"/>
<line class="pin" stroke="#787878" id="connector52pin" y1="93.6" y2="93.6" fill="none" stroke-width="0.699999" x1="93.2499" x2="107.65" stroke-linecap="round"/>
<text font-family="'Droid Sans'" class="text" stroke="none" text-anchor="end" font-size="3.49999" x="91.8499" stroke-width="0" fill="#8c8c8c" y="94.2999">D9 PWM</text>
<g class="terminal" stroke="none" height="0.699999" id="connector52terminal" x="107.65" y="93.2499" fill="none" stroke-width="0" width="0.699999"/>
<line class="pin" stroke="#787878" id="connector53pin" y1="100.8" y2="100.8" fill="none" stroke-width="0.699999" x1="93.2499" x2="107.65" stroke-linecap="round"/>
<text font-family="'Droid Sans'" class="text" stroke="none" text-anchor="end" font-size="3.49999" x="91.8499" stroke-width="0" fill="#8c8c8c" y="101.5">D10 PWM/SS</text>
<g class="terminal" stroke="none" height="0.699999" id="connector53terminal" x="107.65" y="100.45" fill="none" stroke-width="0" width="0.699999"/>
<line class="pin" stroke="#787878" id="connector54pin" y1="108" y2="108" fill="none" stroke-width="0.699999" x1="93.2499" x2="107.65" stroke-linecap="round"/>
<text font-family="'Droid Sans'" class="text" stroke="none" text-anchor="end" font-size="3.49999" x="91.8499" stroke-width="0" fill="#8c8c8c" y="108.7">D11 PWM/MOSI</text>
<g class="terminal" stroke="none" height="0.699999" id="connector54terminal" x="107.65" y="107.65" fill="none" stroke-width="0" width="0.699999"/>
<line class="pin" stroke="#787878" id="connector55pin" y1="115.2" y2="115.2" fill="none" stroke-width="0.699999" x1="93.2499" x2="107.65" stroke-linecap="round"/>
<text font-family="'Droid Sans'" class="text" stroke="none" text-anchor="end" font-size="3.49999" x="91.8499" stroke-width="0" fill="#8c8c8c" y="115.9">D12/MISO</text>
<g class="terminal" stroke="none" height="0.699999" id="connector55terminal" x="107.65" y="114.85" fill="none" stroke-width="0" width="0.699999"/>
<line class="pin" stroke="none" id="connector41pin" y1="122.4" y2="122.4" fill="none" stroke-width="0" x1="93.2499" x2="107.65" stroke-linecap="round"/>
<rect class="terminal" stroke="none" height="0.699999" id="connector41terminal" x="107.65" y="122.05" fill="none" stroke-width="0" width="0.699999"/>
<line class="pin" stroke="#787878" id="connector56pin" y1="122.4" y2="122.4" fill="none" stroke-width="0.699999" x1="93.2499" x2="107.65" stroke-linecap="round"/>
<text font-family="'Droid Sans'" class="text" stroke="none" text-anchor="end" font-size="3.49999" x="91.8499" stroke-width="0" fill="#8c8c8c" y="123.1">D13/SCK</text>
<g class="terminal" stroke="none" height="0.699999" id="connector56terminal" x="107.65" y="122.05" fill="none" stroke-width="0" width="0.699999"/>
<line class="pin" stroke="none" id="connector43pin" y1="28.8" y2="28.8" fill="none" stroke-width="0" x1="0.349999" x2="14.75" stroke-linecap="round"/>
<rect class="terminal" stroke="none" height="0.699999" id="connector43terminal" x="-0.349999" y="28.4499" fill="none" stroke-width="0" width="0.699999"/>
<line class="pin" stroke="#787878" id="connector85pin" y1="28.8" y2="28.8" fill="none" stroke-width="0.699999" x1="0.349999" x2="14.75" stroke-linecap="round"/>
<text font-family="'Droid Sans'" class="text" stroke="none" text-anchor="start" font-size="3.49999" x="16.15" stroke-width="0" fill="#8c8c8c" y="29.4999">RESET</text>
<g class="terminal" stroke="none" height="0.699999" id="connector85terminal" x="-0.349999" y="28.4499" fill="none" stroke-width="0" width="0.699999"/>
<line class="pin" stroke="#787878" id="connector49pin" y1="36" y2="36" fill="none" stroke-width="0.699999" x1="0.349999" x2="14.75" stroke-linecap="round"/>
<text font-family="'Droid Sans'" class="text" stroke="none" text-anchor="start" font-size="3.49999" x="16.15" stroke-width="0" fill="#8c8c8c" y="36.6999">RESET2</text>
<rect class="terminal" stroke="none" height="0.699999" id="connector49terminal" x="-0.349999" y="35.6499" fill="none" stroke-width="0" width="0.699999"/>
<line class="pin" stroke="#787878" id="connector58pin" y1="43.2" y2="43.2" fill="none" stroke-width="0.699999" x1="0.349999" x2="14.75" stroke-linecap="round"/>
<text font-family="'Droid Sans'" class="text" stroke="none" text-anchor="start" font-size="3.49999" x="16.15" stroke-width="0" fill="#8c8c8c" y="43.8999">AREF</text>
<g class="terminal" stroke="none" height="0.699999" id="connector58terminal" x="-0.349999" y="42.8499" fill="none" stroke-width="0" width="0.699999"/>
<line class="pin" stroke="#787878" id="connector84pin" y1="50.4" y2="50.4" fill="none" stroke-width="0.699999" x1="0.349999" x2="14.75" stroke-linecap="round"/>
<text font-family="'Droid Sans'" class="text" stroke="none" text-anchor="start" font-size="3.49999" x="16.15" stroke-width="0" fill="#8c8c8c" y="51.0999">ioref</text>
<g class="terminal" stroke="none" height="0.699999" id="connector84terminal" x="-0.349999" y="50.0499" fill="none" stroke-width="0" width="0.699999"/>
<line class="pin" stroke="#787878" id="connector0pin" y1="64.8" y2="64.8" fill="none" stroke-width="0.699999" x1="0.349999" x2="14.75" stroke-linecap="round"/>
<text font-family="'Droid Sans'" class="text" stroke="none" text-anchor="start" font-size="3.49999" x="16.15" stroke-width="0" fill="#8c8c8c" y="65.4999">A0</text>
<g class="terminal" stroke="none" height="0.699999" id="connector0terminal" x="-0.349999" y="64.4499" fill="none" stroke-width="0" width="0.699999"/>
<line class="pin" stroke="#787878" id="connector1pin" y1="72" y2="72" fill="none" stroke-width="0.699999" x1="0.349999" x2="14.75" stroke-linecap="round"/>
<text font-family="'Droid Sans'" class="text" stroke="none" text-anchor="start" font-size="3.49999" x="16.15" stroke-width="0" fill="#8c8c8c" y="72.6999">A1</text>
<g class="terminal" stroke="none" height="0.699999" id="connector1terminal" x="-0.349999" y="71.6499" fill="none" stroke-width="0" width="0.699999"/>
<line class="pin" stroke="#787878" id="connector2pin" y1="79.2" y2="79.2" fill="none" stroke-width="0.699999" x1="0.349999" x2="14.75" stroke-linecap="round"/>
<text font-family="'Droid Sans'" class="text" stroke="none" text-anchor="start" font-size="3.49999" x="16.15" stroke-width="0" fill="#8c8c8c" y="79.8999">A2</text>
<g class="terminal" stroke="none" height="0.699999" id="connector2terminal" x="-0.349999" y="78.8499" fill="none" stroke-width="0" width="0.699999"/>
<line class="pin" stroke="#787878" id="connector3pin" y1="86.4" y2="86.4" fill="none" stroke-width="0.699999" x1="0.349999" x2="14.75" stroke-linecap="round"/>
<text font-family="'Droid Sans'" class="text" stroke="none" text-anchor="start" font-size="3.49999" x="16.15" stroke-width="0" fill="#8c8c8c" y="87.0999">A3</text>
<g class="terminal" stroke="none" height="0.699999" id="connector3terminal" x="-0.349999" y="86.0499" fill="none" stroke-width="0" width="0.699999"/>
<line class="pin" stroke="none" id="connector48pin" y1="93.6" y2="93.6" fill="none" stroke-width="0" x1="0.349999" x2="14.75" stroke-linecap="round"/>
<rect class="terminal" stroke="none" height="0.699999" id="connector48terminal" x="-0.349999" y="93.2499" fill="none" stroke-width="0" width="0.699999"/>
<line class="pin" stroke="none" id="connector45pin" y1="93.6" y2="93.6" fill="none" stroke-width="0" x1="0.349999" x2="14.75" stroke-linecap="round"/>
<rect class="terminal" stroke="none" height="0.699999" id="connector45terminal" x="-0.349999" y="93.2499" fill="none" stroke-width="0" width="0.699999"/>
<line class="pin" stroke="none" id="connector4pin" y1="93.6" y2="93.6" fill="none" stroke-width="0" x1="0.349999" x2="14.75" stroke-linecap="round"/>
<g class="terminal" stroke="none" height="0.699999" id="connector4terminal" x="-0.349999" y="93.2499" fill="none" stroke-width="0" width="0.699999"/>
<line class="pin" stroke="none" id="connector39pin" y1="93.6" y2="93.6" fill="none" stroke-width="0" x1="0.349999" x2="14.75" stroke-linecap="round"/>
<rect class="terminal" stroke="none" height="0.699999" id="connector39terminal" x="-0.349999" y="93.2499" fill="none" stroke-width="0" width="0.699999"/>
<line class="pin" stroke="none" id="connector47pin" y1="93.6" y2="93.6" fill="none" stroke-width="0" x1="0.349999" x2="14.75" stroke-linecap="round"/>
<rect class="terminal" stroke="none" height="0.699999" id="connector47terminal" x="-0.349999" y="93.2499" fill="none" stroke-width="0" width="0.699999"/>
<line class="pin" stroke="none" id="connector42pin" y1="93.6" y2="93.6" fill="none" stroke-width="0" x1="0.349999" x2="14.75" stroke-linecap="round"/>
<rect class="terminal" stroke="none" height="0.699999" id="connector42terminal" x="-0.349999" y="93.2499" fill="none" stroke-width="0" width="0.699999"/>
<line class="pin" stroke="#787878" id="connector59pin" y1="93.6" y2="93.6" fill="none" stroke-width="0.699999" x1="0.349999" x2="14.75" stroke-linecap="round"/>
<text font-family="'Droid Sans'" class="text" stroke="none" text-anchor="start" font-size="3.49999" x="16.15" stroke-width="0" fill="#8c8c8c" y="94.2999">A4/SDA</text>
<g class="terminal" stroke="none" height="0.699999" id="connector59terminal" x="-0.349999" y="93.2499" fill="none" stroke-width="0" width="0.699999"/>
<line class="pin" stroke="none" id="connector5pin" y1="100.8" y2="100.8" fill="none" stroke-width="0" x1="0.349999" x2="14.75" stroke-linecap="round"/>
<g class="terminal" stroke="none" height="0.699999" id="connector5terminal" x="-0.349999" y="100.45" fill="none" stroke-width="0" width="0.699999"/>
<line class="pin" stroke="#787878" id="connector60pin" y1="100.8" y2="100.8" fill="none" stroke-width="0.699999" x1="0.349999" x2="14.75" stroke-linecap="round"/>
<text font-family="'Droid Sans'" class="text" stroke="none" text-anchor="start" font-size="3.49999" x="16.15" stroke-width="0" fill="#8c8c8c" y="101.5">A5/SCL</text>
<g class="terminal" stroke="none" height="0.699999" id="connector60terminal" x="-0.349999" y="100.45" fill="none" stroke-width="0" width="0.699999"/>
<line class="pin" stroke="#787878" id="connector91pin" y1="136.8" y2="136.8" fill="none" stroke-width="0.699999" x1="0.349999" x2="14.75" stroke-linecap="round"/>
<text font-family="'Droid Sans'" class="text" stroke="none" text-anchor="start" font-size="3.49999" x="16.15" stroke-width="0" fill="#8c8c8c" y="137.5">N/C</text>
<g class="terminal" stroke="none" height="0.699999" id="connector91terminal" x="-0.349999" y="136.45" fill="none" stroke-width="0" width="0.699999"/>
<line class="pin" stroke="none" id="connector88pin" y1="150.85" y2="165.25" fill="none" stroke-width="0" x1="57.6" x2="57.6" stroke-linecap="round"/>
<g class="terminal" stroke="none" height="0.699999" id="connector88terminal" x="57.2499" y="165.25" fill="none" stroke-width="0" width="0.699999"/>
<line class="pin" stroke="none" id="connector57pin" y1="150.85" y2="165.25" fill="none" stroke-width="0" x1="57.6" x2="57.6" stroke-linecap="round"/>
<g class="terminal" stroke="none" height="0.699999" id="connector57terminal" x="57.2499" y="165.25" fill="none" stroke-width="0" width="0.699999"/>
<line class="pin" stroke="none" id="connector44pin" y1="150.85" y2="165.25" fill="none" stroke-width="0" x1="57.6" x2="57.6" stroke-linecap="round"/>
<rect class="terminal" stroke="none" height="0.699999" id="connector44terminal" x="57.2499" y="165.25" fill="none" stroke-width="0" width="0.699999"/>
<line class="pin" stroke="none" id="connector50pin" y1="150.85" y2="165.25" fill="none" stroke-width="0" x1="57.6" x2="57.6" stroke-linecap="round"/>
<rect class="terminal" stroke="none" height="0.699999" id="connector50terminal" x="57.2499" y="165.25" fill="none" stroke-width="0" width="0.699999"/>
<line class="pin" stroke="#787878" id="connector89pin" y1="150.85" y2="165.25" fill="none" stroke-width="0.699999" x1="57.6" x2="57.6" stroke-linecap="round"/>
<g transform="matrix(1, 0, 0, 1, 58.2999, 149.45)">
<g>
<g transform="rotate(270)">
<g>
<text font-family="'Droid Sans'" class="text" stroke="none" text-anchor="start" font-size="3.49999" x="0" stroke-width="0" fill="#8c8c8c" y="0">GND</text>
</g>
</g>
</g>
</g>
<g class="terminal" stroke="none" height="0.699999" id="connector89terminal" x="57.2499" y="165.25" fill="none" stroke-width="0" width="0.699999"/>
<line class="pin" stroke="#787878" id="connector86pin" y1="0.349999" y2="14.75" fill="none" stroke-width="0.699999" x1="36" x2="36" stroke-linecap="round"/>
<g transform="matrix(1, 0, 0, 1, 36.6999, 16.15)">
<g>
<g transform="rotate(270)">
<g>
<text font-family="'Droid Sans'" class="text" stroke="none" text-anchor="end" font-size="3.49999" x="0" stroke-width="0" fill="#8c8c8c" y="0">3V3</text>
</g>
</g>
</g>
</g>
<g class="terminal" stroke="none" height="0.699999" id="connector86terminal" x="35.6499" y="-0.349999" fill="none" stroke-width="0" width="0.699999"/>
<line class="pin" stroke="none" id="connector40pin" y1="0.349999" y2="14.75" fill="none" stroke-width="0" x1="50.4" x2="50.4" stroke-linecap="round"/>
<rect class="terminal" stroke="none" height="0.699999" id="connector40terminal" x="50.0499" y="-0.349999" fill="none" stroke-width="0" width="0.699999"/>
<line class="pin" stroke="none" id="connector46pin" y1="0.349999" y2="14.75" fill="none" stroke-width="0" x1="50.4" x2="50.4" stroke-linecap="round"/>
<rect class="terminal" stroke="none" height="0.699999" id="connector46terminal" x="50.0499" y="-0.349999" fill="none" stroke-width="0" width="0.699999"/>
<line class="pin" stroke="#787878" id="connector87pin" y1="0.349999" y2="14.75" fill="none" stroke-width="0.699999" x1="50.4" x2="50.4" stroke-linecap="round"/>
<g transform="matrix(1, 0, 0, 1, 51.0999, 16.15)">
<g>
<g transform="rotate(270)">
<g>
<text font-family="'Droid Sans'" class="text" stroke="none" text-anchor="end" font-size="3.49999" x="0" stroke-width="0" fill="#8c8c8c" y="0">5V</text>
</g>
</g>
</g>
</g>
<g class="terminal" stroke="none" height="0.699999" id="connector87terminal" x="50.0499" y="-0.349999" fill="none" stroke-width="0" width="0.699999"/>
<line class="pin" stroke="#787878" id="connector90pin" y1="0.349999" y2="14.75" fill="none" stroke-width="0.699999" x1="64.8" x2="64.8" stroke-linecap="round"/>
<g transform="matrix(1, 0, 0, 1, 65.4999, 16.15)">
<g>
<g transform="rotate(270)">
<g>
<text font-family="'Droid Sans'" class="text" stroke="none" text-anchor="end" font-size="3.49999" x="0" stroke-width="0" fill="#8c8c8c" y="0">VIN</text>
</g>
</g>
</g>
</g>
<g class="terminal" stroke="none" height="0.699999" id="connector90terminal" x="64.4499" y="-0.349999" fill="none" stroke-width="0" width="0.699999"/>
<text font-family="'Droid Sans'" class="text" stroke="none" id="label" text-anchor="middle" font-size="4.25001" x="54.4501" stroke-width="0" fill="#000000" y="76.4498">Arduino</text>
<text font-family="'Droid Sans'" class="text" stroke="none" id="label" text-anchor="middle" font-size="4.25001" x="54.4501" stroke-width="0" fill="#000000" y="80.9833">Uno</text>
<text font-family="'Droid Sans'" class="text" stroke="none" id="label" text-anchor="middle" font-size="4.25001" x="54.4501" stroke-width="0" fill="#000000" y="85.5167">(Rev3)</text>
</g>
</g></g><g partID='58860'><g transform='translate(175.896,108.7)' ><g transform='matrix(0,1,-1,0,0,0)'  ><g xmlns="http://www.w3.org/2000/svg" id="schematic">
<line class="other" stroke="#000000" xmlns="http://www.w3.org/2000/svg" y1="3.096" y2="0.216" stroke-width="0.432002" x1="7.55002" x2="8.63003" stroke-linecap="round"/>
<line class="other" stroke="#000000" xmlns="http://www.w3.org/2000/svg" y1="0.216" y2="5.976" stroke-width="0.432002" x1="8.63003" x2="10.43" stroke-linecap="round"/>
<line class="other" stroke="#000000" xmlns="http://www.w3.org/2000/svg" y1="5.976" y2="0.216" stroke-width="0.432002" x1="10.43" x2="12.23" stroke-linecap="round"/>
<line class="other" stroke="#000000" xmlns="http://www.w3.org/2000/svg" y1="0.216" y2="5.976" stroke-width="0.432002" x1="12.23" x2="14.03" stroke-linecap="round"/>
<line class="other" stroke="#000000" xmlns="http://www.w3.org/2000/svg" y1="5.976" y2="0.216" stroke-width="0.432002" x1="14.03" x2="15.8301" stroke-linecap="round"/>
<line class="other" stroke="#000000" xmlns="http://www.w3.org/2000/svg" y1="0.216" y2="5.976" stroke-width="0.432002" x1="15.8301" x2="17.6301" stroke-linecap="round"/>
<line class="other" stroke="#000000" xmlns="http://www.w3.org/2000/svg" y1="5.976" y2="0.216" stroke-width="0.432002" x1="17.6301" x2="19.4301" stroke-linecap="round"/>
<line class="other" stroke="#000000" xmlns="http://www.w3.org/2000/svg" y1="0.216" y2="5.976" stroke-width="0.432002" x1="19.4301" x2="21.2301" stroke-linecap="round"/>
<line class="other" stroke="#000000" xmlns="http://www.w3.org/2000/svg" y1="5.976" y2="3.096" stroke-width="0.432002" x1="21.2301" x2="21.9501" stroke-linecap="round"/>
<line class="pin" stroke="#787878" xmlns="http://www.w3.org/2000/svg" connectorname="2" id="connector1pin" y1="3.096" y2="3.096" stroke-width="0.700001" x1="29.1502" x2="21.9501" stroke-linecap="round"/>
<g class="terminal" stroke="none" xmlns="http://www.w3.org/2000/svg" id="connector1terminal" height="0.000283465" x="29.1502" y="3.096" stroke-width="0" fill="none" width="0.000283466"/>
<text font-family="'Droid Sans'" class="text" stroke="none" xmlns="http://www.w3.org/2000/svg" text-anchor="middle" font-size="2.50001" x="25.5501" stroke-width="0" fill="#8c8c8c" y="2.046">2</text>
<line class="pin" stroke="#787878" xmlns="http://www.w3.org/2000/svg" connectorname="1" id="connector0pin" y1="3.096" y2="3.096" stroke-width="0.700001" x1="0.350001" x2="7.55002" stroke-linecap="round"/>
<g class="terminal" stroke="none" xmlns="http://www.w3.org/2000/svg" id="connector0terminal" height="0.000283465" x="0.350001" y="3.096" stroke-width="0" fill="none" width="0.000283466"/>
<text font-family="'Droid Sans'" class="text" stroke="none" xmlns="http://www.w3.org/2000/svg" text-anchor="middle" font-size="2.50001" x="3.95001" stroke-width="0" fill="#8c8c8c" y="2.046">1</text>
</g>
</g></g></g><g partID='57960'><g transform='translate(139.896,144.7)' ><g transform='matrix(0,1,-1,0,0,0)'  ><g xmlns="http://www.w3.org/2000/svg" id="schematic">
<line class="other" stroke="#000000" xmlns="http://www.w3.org/2000/svg" y1="3.096" y2="0.216" stroke-width="0.432002" x1="7.55002" x2="8.63003" stroke-linecap="round"/>
<line class="other" stroke="#000000" xmlns="http://www.w3.org/2000/svg" y1="0.216" y2="5.976" stroke-width="0.432002" x1="8.63003" x2="10.43" stroke-linecap="round"/>
<line class="other" stroke="#000000" xmlns="http://www.w3.org/2000/svg" y1="5.976" y2="0.216" stroke-width="0.432002" x1="10.43" x2="12.23" stroke-linecap="round"/>
<line class="other" stroke="#000000" xmlns="http://www.w3.org/2000/svg" y1="0.216" y2="5.976" stroke-width="0.432002" x1="12.23" x2="14.03" stroke-linecap="round"/>
<line class="other" stroke="#000000" xmlns="http://www.w3.org/2000/svg" y1="5.976" y2="0.216" stroke-width="0.432002" x1="14.03" x2="15.8301" stroke-linecap="round"/>
<line class="other" stroke="#000000" xmlns="http://www.w3.org/2000/svg" y1="0.216" y2="5.976" stroke-width="0.432002" x1="15.8301" x2="17.6301" stroke-linecap="round"/>
<line class="other" stroke="#000000" xmlns="http://www.w3.org/2000/svg" y1="5.976" y2="0.216" stroke-width="0.432002" x1="17.6301" x2="19.4301" stroke-linecap="round"/>
<line class="other" stroke="#000000" xmlns="http://www.w3.org/2000/svg" y1="0.216" y2="5.976" stroke-width="0.432002" x1="19.4301" x2="21.2301" stroke-linecap="round"/>
<line class="other" stroke="#000000" xmlns="http://www.w3.org/2000/svg" y1="5.976" y2="3.096" stroke-width="0.432002" x1="21.2301" x2="21.9501" stroke-linecap="round"/>
<line class="pin" stroke="#787878" xmlns="http://www.w3.org/2000/svg" connectorname="2" id="connector1pin" y1="3.096" y2="3.096" stroke-width="0.700001" x1="29.1502" x2="21.9501" stroke-linecap="round"/>
<g class="terminal" stroke="none" xmlns="http://www.w3.org/2000/svg" id="connector1terminal" height="0.000283465" x="29.1502" y="3.096" stroke-width="0" fill="none" width="0.000283466"/>
<text font-family="'Droid Sans'" class="text" stroke="none" xmlns="http://www.w3.org/2000/svg" text-anchor="middle" font-size="2.50001" x="25.5501" stroke-width="0" fill="#8c8c8c" y="2.046">2</text>
<line class="pin" stroke="#787878" xmlns="http://www.w3.org/2000/svg" connectorname="1" id="connector0pin" y1="3.096" y2="3.096" stroke-width="0.700001" x1="0.350001" x2="7.55002" stroke-linecap="round"/>
<g class="terminal" stroke="none" xmlns="http://www.w3.org/2000/svg" id="connector0terminal" height="0.000283465" x="0.350001" y="3.096" stroke-width="0" fill="none" width="0.000283466"/>
<text font-family="'Droid Sans'" class="text" stroke="none" xmlns="http://www.w3.org/2000/svg" text-anchor="middle" font-size="2.50001" x="3.95001" stroke-width="0" fill="#8c8c8c" y="2.046">1</text>
</g>
</g></g></g><g partID='72870'><line stroke-linecap='round' stroke='#8c3b00' x1='136.8' y1='145.05' x2='136.8' y2='145.05' stroke-width='0.4' /></g><g partID='72890'><line stroke-linecap='round' stroke='#404040' x1='136.8' y1='123.45' x2='108' y2='123.45' stroke-width='0.699998' /></g><g partID='72950'><line stroke-linecap='round' stroke='#404040' x1='158.401' y1='23.6125' x2='158.4' y2='1.05002' stroke-width='0.699998' /></g><g partID='72970'><line stroke-linecap='round' stroke='#404040' x1='158.4' y1='1.05002' x2='50.4' y2='1.05002' stroke-width='0.699998' /></g><g partID='73050'><line stroke-linecap='round' stroke='#404040' x1='50.4' y1='1.05002' x2='50.3999' y2='8.2501' stroke-width='0.699998' /></g><g partID='73090'><line stroke-linecap='round' stroke='#404040' x1='136.8' y1='173.85' x2='172.8' y2='173.85' stroke-width='0.699998' /></g><circle  fill="black" cx="136.8" cy="173.85" r="1.44" stroke-width="0" stroke="none" /><g partID='73110'><line stroke-linecap='round' stroke='#404040' x1='172.8' y1='173.85' x2='172.8' y2='137.85' stroke-width='0.699998' /></g><g partID='73210'><line stroke-linecap='round' stroke='#404040' x1='57.5999' y1='173.85' x2='57.6' y2='173.85' stroke-width='0.699998' /></g><g partID='73230'><line stroke-linecap='round' stroke='#404040' x1='57.6' y1='173.85' x2='136.8' y2='173.85' stroke-width='0.699998' /></g><circle  fill="black" cx="136.8" cy="173.85" r="1.44" stroke-width="0" stroke="none" /><g partID='73310'><line stroke-linecap='round' stroke='#404040' x1='172.8' y1='109.05' x2='172.782' y2='51.497' stroke-width='0.699998' /></g><g partID='73370'><line stroke-linecap='round' stroke='#404040' x1='108' y1='51.45' x2='158.4' y2='51.45' stroke-width='0.699998' /></g><g partID='58530' id='partLabel'><g transform='translate(116.307,111.626)' ><g font-size='5' font-style='normal' font-weight='normal' fill='#000000' font-family="'DroidSans'" id='schematicLabel' fill-opacity='1' stroke='none' ><text x='0' y='3.75'>LED1</text><text x='0' y='8.75'>Red (633nm)</text></g></g></g><g partID='57960' id='partLabel'><g transform='translate(132.283,152.157)' ><g transform='matrix(0,1,-1,0,0,0)'  ><g font-size='5' font-style='normal' font-weight='normal' fill='#000000' font-family="'DroidSans'" id='schematicLabel' fill-opacity='1' stroke='none' ><text x='0' y='3.75'>R2</text><text x='0' y='8.75'>220&#x3a9;</text></g></g></g></g><g partID='58860' id='partLabel'><g transform='translate(178.179,116.507)' ><g font-size='5' font-style='normal' font-weight='normal' fill='#000000' font-family="'DroidSans'" id='schematicLabel' fill-opacity='1' stroke='none' ><text x='0' y='3.75'>R1</text><text x='0' y='8.75'>10k&#x3a9;</text></g></g></g><g partID='59780' id='partLabel'><g transform='translate(181.64,34.194)' ><g transform='matrix(0,1,-1,0,0,0)'  ><g font-size='5' font-style='normal' font-weight='normal' fill='#000000' font-family="'DroidSans'" id='schematicLabel' fill-opacity='1' stroke='none' ><text x='0' y='3.75'>S1</text></g></g></g></g><g partID='57520' id='partLabel'><g transform='translate(0,1.8501)' ><g transform='matrix(1,0,0,1,0,0)'  ><g font-size='5' font-style='normal' font-weight='normal' fill='#000000' font-family="'DroidSans'" id='schematicLabel' fill-opacity='1' stroke='none' ><text x='0' y='3.75'>3.- Pulsador e Led</text></g></g></g></g></svg>