<?xml version='1.0' encoding='UTF-8' standalone='no'?>
<!-- Created with Fritzing (http://www.fritzing.org/) -->
<svg xmlns:svg='http://www.w3.org/2000/svg' xmlns='http://www.w3.org/2000/svg' version='1.2' baseProfile='tiny' x='0in' y='0in' width='3.51913in' height='2.4298in' viewBox='0 0 253.378 174.945' >
<g partID='67660'><g transform='translate(0,115.655)' ><g transform='matrix(1,0,0,-1,0,0)'  ><g id="schematic">
<polyline stroke-linecap="round" fill="none" stroke-width="0.7" stroke="#000000" points="4.125,17.557,21.6,27.474,21.6,37.743"/>
<polygon points="4.23,19.505,-0.022,15.188,5.819,16.8"/>
<polyline stroke-linecap="round" fill="none" stroke-width="0.7" stroke="#000000" points="14.401,36,14.401,34.559,11.521,32.4,18.001,28.799,11.521,25.2,18.001,21.6,11.521,18,18.001,14.4,11.521,10.8,14.401,8.64,14.401,7.2"/>
<g fill="none" id="connector1terminal" d="M21.968,43.2l0,-1.054l-0.672,0.017L21.296,43.2L21.968,43.2z"/>
<line stroke-linecap="round" fill="none" id="connector1pin" stroke-width="0.7" y1="42.85" y2="36" stroke="#787878" x1="21.621" x2="21.621"/>
<line stroke-linecap="round" fill="none" id="connector0pin" stroke-width="0.7" y1="42.85" y2="36" stroke="#787878" x1="14.4" x2="14.4"/>
<g fill="none" id="connector0terminal" d="M14.047,42.176l0.703,0L14.719,43.2l-0.656,0L14.047,42.176z"/>
<g transform="matrix(1, 0, 0, 1, 11.521, 40.0005)">
<text fill="#787878" font-family="'DroidSans'" font-size="2">1</text>
</g>
<g transform="matrix(1, 0, 0, 1, 19.1245, 40.0005)">
<text fill="#787878" font-family="'DroidSans'" font-size="2">3</text>
</g>
<line stroke-linecap="round" fill="none" id="connector2pin" stroke-width="0.7" y1="0.35" y2="7.55" stroke="#787878" x1="14.4" x2="14.4"/>
<g fill="none" id="connector2terminal" d="M14.15,-0.25l0,0.5l0.497,-0.01l0.003,-0.49L14.15,-0.25z"/>
<g transform="matrix(1, 0, 0, 1, 11.521, 4.9751)">
<text fill="#787878" font-family="'DroidSans'" font-size="2">2</text>
</g>
</g>
</g></g></g><g partID='67310'><g transform='translate(198.898,123.151)' ><g id="schematic">
<g>
<path d="M13.5,14.966L9.9,14.966c-0.193,0,-0.35,-0.156,-0.35,-0.35s0.156,-0.35,0.35,-0.35L13.5,14.266c0.193,0,0.35,0.156,0.35,0.35S13.694,14.966,13.5,14.966z"/>
</g>
<g>
<path d="M9.9,14.966L6.3,14.966c-0.193,0,-0.35,-0.156,-0.35,-0.35s0.157,-0.35,0.35,-0.35l3.6,0c0.193,0,0.35,0.156,0.35,0.35S10.093,14.966,9.9,14.966z"/>
</g>
<g>
<polygon fill="#FFFFFF" points="9.9,14.616,6.3,7.416,9.9,7.416,13.5,7.416"/>
<path d="M9.9,15.398L5.734,7.066l8.333,0L9.9,15.398zM6.866,7.766L9.9,13.834l3.034,-6.068L6.866,7.766z"/>
</g>
<g>
<path d="M9.9,14.841c-0.124,0,-0.225,-0.101,-0.225,-0.225l0,-7.2c0,-0.124,0.101,-0.225,0.225,-0.225s0.225,0.101,0.225,0.225l0,7.2C10.124,14.74,10.024,14.841,9.9,14.841z"/>
</g>
<g>
<path d="M1.8,12.141c-0.058,0,-0.115,-0.021,-0.159,-0.065c-0.088,-0.088,-0.088,-0.23,0,-0.318l2.34,-2.341c0.088,-0.088,0.23,-0.088,0.318,0s0.088,0.23,0,0.318l-2.34,2.341C1.915,12.12,1.858,12.141,1.8,12.141z"/>
</g>
<g>
<path d="M2.16,15.381c-0.058,0,-0.115,-0.021,-0.159,-0.065c-0.088,-0.088,-0.088,-0.23,0,-0.318l2.34,-2.34c0.088,-0.088,0.23,-0.088,0.318,0s0.088,0.23,0,0.318l-2.34,2.34C2.276,15.359,2.218,15.381,2.16,15.381z"/>
</g>
<g id="connector0pin">
<path fill="#787878" d="M9.9,22.166c-0.193,0,-0.35,-0.156,-0.35,-0.35l0,-7.2c0,-0.193,0.156,-0.35,0.35,-0.35s0.35,0.156,0.35,0.35l0,7.2C10.249,22.01,10.093,22.166,9.9,22.166z"/>
</g>
<g id="connector0terminal">
<rect height="0.001" fill="none" width="0.001" x="9.9" y="21.816"/>
</g>
<g transform="matrix(1, 0, 0, 1, 3.429, 6.4262)">
<g>
<g transform="rotate(270)">
<g>
<g enable-background="new    ">
<path fill="#787878" d="M-11.647,5.54l-0.891,0L-12.538,5.388l0.342,-0.372c0.049,-0.053,0.093,-0.101,0.131,-0.145s0.071,-0.086,0.099,-0.128c0.026,-0.042,0.047,-0.084,0.062,-0.125c0.015,-0.043,0.021,-0.088,0.021,-0.138c0,-0.038,-0.005,-0.072,-0.017,-0.102s-0.027,-0.054,-0.047,-0.075c-0.021,-0.02,-0.045,-0.035,-0.073,-0.046s-0.06,-0.016,-0.094,-0.016c-0.062,0,-0.118,0.013,-0.167,0.038c-0.051,0.024,-0.098,0.057,-0.143,0.096l-0.1,-0.116c0.025,-0.023,0.055,-0.046,0.084,-0.065c0.029,-0.021,0.063,-0.039,0.097,-0.054s0.071,-0.026,0.109,-0.036c0.038,-0.008,0.079,-0.013,0.121,-0.013c0.063,0,0.119,0.009,0.169,0.026c0.051,0.018,0.094,0.043,0.129,0.076c0.035,0.032,0.063,0.072,0.082,0.119c0.019,0.048,0.028,0.101,0.028,0.16c0,0.056,-0.009,0.108,-0.026,0.158c-0.017,0.05,-0.041,0.1,-0.07,0.148c-0.031,0.048,-0.066,0.097,-0.109,0.146c-0.041,0.049,-0.087,0.1,-0.136,0.152L-12.32,5.37l0,0.008l0.673,0L-11.647,5.54z"/>
</g>
</g>
</g>
</g>
</g>
<g id="connector1pin">
<path fill="#787878" d="M9.9,7.766c-0.193,0,-0.35,-0.157,-0.35,-0.35l0,-7.2c0,-0.193,0.156,-0.35,0.35,-0.35s0.35,0.157,0.35,0.35l0,7.2C10.249,7.609,10.093,7.766,9.9,7.766z"/>
</g>
<g id="connector1terminal">
<polygon fill="none" points="9.9,0.216,9.901,0.216,9.901,0.216"/>
</g>
<g transform="matrix(1, 0, 0, 1, 3.429, 1.3462)">
<g>
<g transform="rotate(270)">
<g>
<g enable-background="new    ">
<path fill="#787878" d="M-2.616,5.54l-0.172,0L-2.788,4.648c0,-0.028,0,-0.058,0,-0.09s0.001,-0.063,0.002,-0.095c0.001,-0.032,0.002,-0.063,0.003,-0.092c0.001,-0.028,0.002,-0.054,0.002,-0.076c-0.011,0.012,-0.021,0.021,-0.029,0.03s-0.017,0.017,-0.026,0.024s-0.018,0.016,-0.028,0.025c-0.01,0.008,-0.021,0.019,-0.035,0.03l-0.145,0.118l-0.094,-0.12l0.374,-0.292l0.146,0L-2.618,5.54z"/>
</g>
</g>
</g>
</g>
</g>
<g>
<path d="M0.18,13.536l1.08,-2.521l1.44,1.438L0.18,13.536z"/>
</g>
<g>
<path d="M0.54,16.776l1.08,-2.521l1.438,1.438L0.54,16.776z"/>
</g>
</g>
</g></g><g partID='57520'><g transform='translate(64.7985,8.16714)' ><g id="schematic">
<rect height="135.9" stroke-linecap="round" width="78.3" fill="#FFFFFF" class="interior rect" stroke-width="0.9" x="14.85" stroke="#000000" y="14.85"/>
<line stroke-linecap="round" fill="none" class="pin" id="connector61pin" y1="28.8" stroke-width="0.699999" y2="28.8" stroke="#787878" x1="93.2499" x2="107.65"/>
<text text-anchor="end" fill="#8c8c8c" class="text" font-family="'Droid Sans'" stroke-width="0" stroke="none" x="91.8499" font-size="3.49999" y="29.4999">D0/RX</text>
<g height="0.699999" width="0.699999" fill="none" class="terminal" id="connector61terminal" stroke-width="0" x="107.65" stroke="none" y="28.4499"/>
<line stroke-linecap="round" fill="none" class="pin" id="connector62pin" y1="36" stroke-width="0.699999" y2="36" stroke="#787878" x1="93.2499" x2="107.65"/>
<text text-anchor="end" fill="#8c8c8c" class="text" font-family="'Droid Sans'" stroke-width="0" stroke="none" x="91.8499" font-size="3.49999" y="36.6999">D1/TX</text>
<g height="0.699999" width="0.699999" fill="none" class="terminal" id="connector62terminal" stroke-width="0" x="107.65" stroke="none" y="35.6499"/>
<line stroke-linecap="round" fill="none" class="pin" id="connector63pin" y1="43.2" stroke-width="0.699999" y2="43.2" stroke="#787878" x1="93.2499" x2="107.65"/>
<text text-anchor="end" fill="#8c8c8c" class="text" font-family="'Droid Sans'" stroke-width="0" stroke="none" x="91.8499" font-size="3.49999" y="43.8999">D2</text>
<g height="0.699999" width="0.699999" fill="none" class="terminal" id="connector63terminal" stroke-width="0" x="107.65" stroke="none" y="42.8499"/>
<line stroke-linecap="round" fill="none" class="pin" id="connector64pin" y1="50.4" stroke-width="0.699999" y2="50.4" stroke="#787878" x1="93.2499" x2="107.65"/>
<text text-anchor="end" fill="#8c8c8c" class="text" font-family="'Droid Sans'" stroke-width="0" stroke="none" x="91.8499" font-size="3.49999" y="51.0999">D3 PWM</text>
<g height="0.699999" width="0.699999" fill="none" class="terminal" id="connector64terminal" stroke-width="0" x="107.65" stroke="none" y="50.0499"/>
<line stroke-linecap="round" fill="none" class="pin" id="connector65pin" y1="57.6" stroke-width="0.699999" y2="57.6" stroke="#787878" x1="93.2499" x2="107.65"/>
<text text-anchor="end" fill="#8c8c8c" class="text" font-family="'Droid Sans'" stroke-width="0" stroke="none" x="91.8499" font-size="3.49999" y="58.2999">D4</text>
<g height="0.699999" width="0.699999" fill="none" class="terminal" id="connector65terminal" stroke-width="0" x="107.65" stroke="none" y="57.2499"/>
<line stroke-linecap="round" fill="none" class="pin" id="connector66pin" y1="64.8" stroke-width="0.699999" y2="64.8" stroke="#787878" x1="93.2499" x2="107.65"/>
<text text-anchor="end" fill="#8c8c8c" class="text" font-family="'Droid Sans'" stroke-width="0" stroke="none" x="91.8499" font-size="3.49999" y="65.4999">D5 PWM</text>
<g height="0.699999" width="0.699999" fill="none" class="terminal" id="connector66terminal" stroke-width="0" x="107.65" stroke="none" y="64.4499"/>
<line stroke-linecap="round" fill="none" class="pin" id="connector67pin" y1="72" stroke-width="0.699999" y2="72" stroke="#787878" x1="93.2499" x2="107.65"/>
<text text-anchor="end" fill="#8c8c8c" class="text" font-family="'Droid Sans'" stroke-width="0" stroke="none" x="91.8499" font-size="3.49999" y="72.6999">D6 PWM</text>
<g height="0.699999" width="0.699999" fill="none" class="terminal" id="connector67terminal" stroke-width="0" x="107.65" stroke="none" y="71.6499"/>
<line stroke-linecap="round" fill="none" class="pin" id="connector68pin" y1="79.2" stroke-width="0.699999" y2="79.2" stroke="#787878" x1="93.2499" x2="107.65"/>
<text text-anchor="end" fill="#8c8c8c" class="text" font-family="'Droid Sans'" stroke-width="0" stroke="none" x="91.8499" font-size="3.49999" y="79.8999">D7</text>
<g height="0.699999" width="0.699999" fill="none" class="terminal" id="connector68terminal" stroke-width="0" x="107.65" stroke="none" y="78.8499"/>
<line stroke-linecap="round" fill="none" class="pin" id="connector51pin" y1="86.4" stroke-width="0.699999" y2="86.4" stroke="#787878" x1="93.2499" x2="107.65"/>
<text text-anchor="end" fill="#8c8c8c" class="text" font-family="'Droid Sans'" stroke-width="0" stroke="none" x="91.8499" font-size="3.49999" y="87.0999">D8</text>
<g height="0.699999" width="0.699999" fill="none" class="terminal" id="connector51terminal" stroke-width="0" x="107.65" stroke="none" y="86.0499"/>
<line stroke-linecap="round" fill="none" class="pin" id="connector52pin" y1="93.6" stroke-width="0.699999" y2="93.6" stroke="#787878" x1="93.2499" x2="107.65"/>
<text text-anchor="end" fill="#8c8c8c" class="text" font-family="'Droid Sans'" stroke-width="0" stroke="none" x="91.8499" font-size="3.49999" y="94.2999">D9 PWM</text>
<g height="0.699999" width="0.699999" fill="none" class="terminal" id="connector52terminal" stroke-width="0" x="107.65" stroke="none" y="93.2499"/>
<line stroke-linecap="round" fill="none" class="pin" id="connector53pin" y1="100.8" stroke-width="0.699999" y2="100.8" stroke="#787878" x1="93.2499" x2="107.65"/>
<text text-anchor="end" fill="#8c8c8c" class="text" font-family="'Droid Sans'" stroke-width="0" stroke="none" x="91.8499" font-size="3.49999" y="101.5">D10 PWM/SS</text>
<g height="0.699999" width="0.699999" fill="none" class="terminal" id="connector53terminal" stroke-width="0" x="107.65" stroke="none" y="100.45"/>
<line stroke-linecap="round" fill="none" class="pin" id="connector54pin" y1="108" stroke-width="0.699999" y2="108" stroke="#787878" x1="93.2499" x2="107.65"/>
<text text-anchor="end" fill="#8c8c8c" class="text" font-family="'Droid Sans'" stroke-width="0" stroke="none" x="91.8499" font-size="3.49999" y="108.7">D11 PWM/MOSI</text>
<g height="0.699999" width="0.699999" fill="none" class="terminal" id="connector54terminal" stroke-width="0" x="107.65" stroke="none" y="107.65"/>
<line stroke-linecap="round" fill="none" class="pin" id="connector55pin" y1="115.2" stroke-width="0.699999" y2="115.2" stroke="#787878" x1="93.2499" x2="107.65"/>
<text text-anchor="end" fill="#8c8c8c" class="text" font-family="'Droid Sans'" stroke-width="0" stroke="none" x="91.8499" font-size="3.49999" y="115.9">D12/MISO</text>
<g height="0.699999" width="0.699999" fill="none" class="terminal" id="connector55terminal" stroke-width="0" x="107.65" stroke="none" y="114.85"/>
<line stroke-linecap="round" fill="none" class="pin" id="connector41pin" y1="122.4" stroke-width="0" y2="122.4" stroke="none" x1="93.2499" x2="107.65"/>
<rect height="0.699999" width="0.699999" fill="none" class="terminal" id="connector41terminal" stroke-width="0" x="107.65" stroke="none" y="122.05"/>
<line stroke-linecap="round" fill="none" class="pin" id="connector56pin" y1="122.4" stroke-width="0.699999" y2="122.4" stroke="#787878" x1="93.2499" x2="107.65"/>
<text text-anchor="end" fill="#8c8c8c" class="text" font-family="'Droid Sans'" stroke-width="0" stroke="none" x="91.8499" font-size="3.49999" y="123.1">D13/SCK</text>
<g height="0.699999" width="0.699999" fill="none" class="terminal" id="connector56terminal" stroke-width="0" x="107.65" stroke="none" y="122.05"/>
<line stroke-linecap="round" fill="none" class="pin" id="connector43pin" y1="28.8" stroke-width="0" y2="28.8" stroke="none" x1="0.349999" x2="14.75"/>
<rect height="0.699999" width="0.699999" fill="none" class="terminal" id="connector43terminal" stroke-width="0" x="-0.349999" stroke="none" y="28.4499"/>
<line stroke-linecap="round" fill="none" class="pin" id="connector85pin" y1="28.8" stroke-width="0.699999" y2="28.8" stroke="#787878" x1="0.349999" x2="14.75"/>
<text text-anchor="start" fill="#8c8c8c" class="text" font-family="'Droid Sans'" stroke-width="0" stroke="none" x="16.15" font-size="3.49999" y="29.4999">RESET</text>
<g height="0.699999" width="0.699999" fill="none" class="terminal" id="connector85terminal" stroke-width="0" x="-0.349999" stroke="none" y="28.4499"/>
<line stroke-linecap="round" fill="none" class="pin" id="connector49pin" y1="36" stroke-width="0.699999" y2="36" stroke="#787878" x1="0.349999" x2="14.75"/>
<text text-anchor="start" fill="#8c8c8c" class="text" font-family="'Droid Sans'" stroke-width="0" stroke="none" x="16.15" font-size="3.49999" y="36.6999">RESET2</text>
<rect height="0.699999" width="0.699999" fill="none" class="terminal" id="connector49terminal" stroke-width="0" x="-0.349999" stroke="none" y="35.6499"/>
<line stroke-linecap="round" fill="none" class="pin" id="connector58pin" y1="43.2" stroke-width="0.699999" y2="43.2" stroke="#787878" x1="0.349999" x2="14.75"/>
<text text-anchor="start" fill="#8c8c8c" class="text" font-family="'Droid Sans'" stroke-width="0" stroke="none" x="16.15" font-size="3.49999" y="43.8999">AREF</text>
<g height="0.699999" width="0.699999" fill="none" class="terminal" id="connector58terminal" stroke-width="0" x="-0.349999" stroke="none" y="42.8499"/>
<line stroke-linecap="round" fill="none" class="pin" id="connector84pin" y1="50.4" stroke-width="0.699999" y2="50.4" stroke="#787878" x1="0.349999" x2="14.75"/>
<text text-anchor="start" fill="#8c8c8c" class="text" font-family="'Droid Sans'" stroke-width="0" stroke="none" x="16.15" font-size="3.49999" y="51.0999">ioref</text>
<g height="0.699999" width="0.699999" fill="none" class="terminal" id="connector84terminal" stroke-width="0" x="-0.349999" stroke="none" y="50.0499"/>
<line stroke-linecap="round" fill="none" class="pin" id="connector0pin" y1="64.8" stroke-width="0.699999" y2="64.8" stroke="#787878" x1="0.349999" x2="14.75"/>
<text text-anchor="start" fill="#8c8c8c" class="text" font-family="'Droid Sans'" stroke-width="0" stroke="none" x="16.15" font-size="3.49999" y="65.4999">A0</text>
<g height="0.699999" width="0.699999" fill="none" class="terminal" id="connector0terminal" stroke-width="0" x="-0.349999" stroke="none" y="64.4499"/>
<line stroke-linecap="round" fill="none" class="pin" id="connector1pin" y1="72" stroke-width="0.699999" y2="72" stroke="#787878" x1="0.349999" x2="14.75"/>
<text text-anchor="start" fill="#8c8c8c" class="text" font-family="'Droid Sans'" stroke-width="0" stroke="none" x="16.15" font-size="3.49999" y="72.6999">A1</text>
<g height="0.699999" width="0.699999" fill="none" class="terminal" id="connector1terminal" stroke-width="0" x="-0.349999" stroke="none" y="71.6499"/>
<line stroke-linecap="round" fill="none" class="pin" id="connector2pin" y1="79.2" stroke-width="0.699999" y2="79.2" stroke="#787878" x1="0.349999" x2="14.75"/>
<text text-anchor="start" fill="#8c8c8c" class="text" font-family="'Droid Sans'" stroke-width="0" stroke="none" x="16.15" font-size="3.49999" y="79.8999">A2</text>
<g height="0.699999" width="0.699999" fill="none" class="terminal" id="connector2terminal" stroke-width="0" x="-0.349999" stroke="none" y="78.8499"/>
<line stroke-linecap="round" fill="none" class="pin" id="connector3pin" y1="86.4" stroke-width="0.699999" y2="86.4" stroke="#787878" x1="0.349999" x2="14.75"/>
<text text-anchor="start" fill="#8c8c8c" class="text" font-family="'Droid Sans'" stroke-width="0" stroke="none" x="16.15" font-size="3.49999" y="87.0999">A3</text>
<g height="0.699999" width="0.699999" fill="none" class="terminal" id="connector3terminal" stroke-width="0" x="-0.349999" stroke="none" y="86.0499"/>
<line stroke-linecap="round" fill="none" class="pin" id="connector48pin" y1="93.6" stroke-width="0" y2="93.6" stroke="none" x1="0.349999" x2="14.75"/>
<rect height="0.699999" width="0.699999" fill="none" class="terminal" id="connector48terminal" stroke-width="0" x="-0.349999" stroke="none" y="93.2499"/>
<line stroke-linecap="round" fill="none" class="pin" id="connector45pin" y1="93.6" stroke-width="0" y2="93.6" stroke="none" x1="0.349999" x2="14.75"/>
<rect height="0.699999" width="0.699999" fill="none" class="terminal" id="connector45terminal" stroke-width="0" x="-0.349999" stroke="none" y="93.2499"/>
<line stroke-linecap="round" fill="none" class="pin" id="connector4pin" y1="93.6" stroke-width="0" y2="93.6" stroke="none" x1="0.349999" x2="14.75"/>
<g height="0.699999" width="0.699999" fill="none" class="terminal" id="connector4terminal" stroke-width="0" x="-0.349999" stroke="none" y="93.2499"/>
<line stroke-linecap="round" fill="none" class="pin" id="connector39pin" y1="93.6" stroke-width="0" y2="93.6" stroke="none" x1="0.349999" x2="14.75"/>
<rect height="0.699999" width="0.699999" fill="none" class="terminal" id="connector39terminal" stroke-width="0" x="-0.349999" stroke="none" y="93.2499"/>
<line stroke-linecap="round" fill="none" class="pin" id="connector47pin" y1="93.6" stroke-width="0" y2="93.6" stroke="none" x1="0.349999" x2="14.75"/>
<rect height="0.699999" width="0.699999" fill="none" class="terminal" id="connector47terminal" stroke-width="0" x="-0.349999" stroke="none" y="93.2499"/>
<line stroke-linecap="round" fill="none" class="pin" id="connector42pin" y1="93.6" stroke-width="0" y2="93.6" stroke="none" x1="0.349999" x2="14.75"/>
<rect height="0.699999" width="0.699999" fill="none" class="terminal" id="connector42terminal" stroke-width="0" x="-0.349999" stroke="none" y="93.2499"/>
<line stroke-linecap="round" fill="none" class="pin" id="connector59pin" y1="93.6" stroke-width="0.699999" y2="93.6" stroke="#787878" x1="0.349999" x2="14.75"/>
<text text-anchor="start" fill="#8c8c8c" class="text" font-family="'Droid Sans'" stroke-width="0" stroke="none" x="16.15" font-size="3.49999" y="94.2999">A4/SDA</text>
<g height="0.699999" width="0.699999" fill="none" class="terminal" id="connector59terminal" stroke-width="0" x="-0.349999" stroke="none" y="93.2499"/>
<line stroke-linecap="round" fill="none" class="pin" id="connector5pin" y1="100.8" stroke-width="0" y2="100.8" stroke="none" x1="0.349999" x2="14.75"/>
<g height="0.699999" width="0.699999" fill="none" class="terminal" id="connector5terminal" stroke-width="0" x="-0.349999" stroke="none" y="100.45"/>
<line stroke-linecap="round" fill="none" class="pin" id="connector60pin" y1="100.8" stroke-width="0.699999" y2="100.8" stroke="#787878" x1="0.349999" x2="14.75"/>
<text text-anchor="start" fill="#8c8c8c" class="text" font-family="'Droid Sans'" stroke-width="0" stroke="none" x="16.15" font-size="3.49999" y="101.5">A5/SCL</text>
<g height="0.699999" width="0.699999" fill="none" class="terminal" id="connector60terminal" stroke-width="0" x="-0.349999" stroke="none" y="100.45"/>
<line stroke-linecap="round" fill="none" class="pin" id="connector91pin" y1="136.8" stroke-width="0.699999" y2="136.8" stroke="#787878" x1="0.349999" x2="14.75"/>
<text text-anchor="start" fill="#8c8c8c" class="text" font-family="'Droid Sans'" stroke-width="0" stroke="none" x="16.15" font-size="3.49999" y="137.5">N/C</text>
<g height="0.699999" width="0.699999" fill="none" class="terminal" id="connector91terminal" stroke-width="0" x="-0.349999" stroke="none" y="136.45"/>
<line stroke-linecap="round" fill="none" class="pin" id="connector88pin" y1="150.85" stroke-width="0" y2="165.25" stroke="none" x1="57.6" x2="57.6"/>
<g height="0.699999" width="0.699999" fill="none" class="terminal" id="connector88terminal" stroke-width="0" x="57.2499" stroke="none" y="165.25"/>
<line stroke-linecap="round" fill="none" class="pin" id="connector57pin" y1="150.85" stroke-width="0" y2="165.25" stroke="none" x1="57.6" x2="57.6"/>
<g height="0.699999" width="0.699999" fill="none" class="terminal" id="connector57terminal" stroke-width="0" x="57.2499" stroke="none" y="165.25"/>
<line stroke-linecap="round" fill="none" class="pin" id="connector44pin" y1="150.85" stroke-width="0" y2="165.25" stroke="none" x1="57.6" x2="57.6"/>
<rect height="0.699999" width="0.699999" fill="none" class="terminal" id="connector44terminal" stroke-width="0" x="57.2499" stroke="none" y="165.25"/>
<line stroke-linecap="round" fill="none" class="pin" id="connector50pin" y1="150.85" stroke-width="0" y2="165.25" stroke="none" x1="57.6" x2="57.6"/>
<rect height="0.699999" width="0.699999" fill="none" class="terminal" id="connector50terminal" stroke-width="0" x="57.2499" stroke="none" y="165.25"/>
<line stroke-linecap="round" fill="none" class="pin" id="connector89pin" y1="150.85" stroke-width="0.699999" y2="165.25" stroke="#787878" x1="57.6" x2="57.6"/>
<g transform="matrix(1, 0, 0, 1, 58.2999, 149.45)">
<g>
<g transform="rotate(270)">
<g>
<text text-anchor="start" fill="#8c8c8c" class="text" font-family="'Droid Sans'" stroke-width="0" stroke="none" x="0" font-size="3.49999" y="0">GND</text>
</g>
</g>
</g>
</g>
<g height="0.699999" width="0.699999" fill="none" class="terminal" id="connector89terminal" stroke-width="0" x="57.2499" stroke="none" y="165.25"/>
<line stroke-linecap="round" fill="none" class="pin" id="connector86pin" y1="0.349999" stroke-width="0.699999" y2="14.75" stroke="#787878" x1="36" x2="36"/>
<g transform="matrix(1, 0, 0, 1, 36.6999, 16.15)">
<g>
<g transform="rotate(270)">
<g>
<text text-anchor="end" fill="#8c8c8c" class="text" font-family="'Droid Sans'" stroke-width="0" stroke="none" x="0" font-size="3.49999" y="0">3V3</text>
</g>
</g>
</g>
</g>
<g height="0.699999" width="0.699999" fill="none" class="terminal" id="connector86terminal" stroke-width="0" x="35.6499" stroke="none" y="-0.349999"/>
<line stroke-linecap="round" fill="none" class="pin" id="connector40pin" y1="0.349999" stroke-width="0" y2="14.75" stroke="none" x1="50.4" x2="50.4"/>
<rect height="0.699999" width="0.699999" fill="none" class="terminal" id="connector40terminal" stroke-width="0" x="50.0499" stroke="none" y="-0.349999"/>
<line stroke-linecap="round" fill="none" class="pin" id="connector46pin" y1="0.349999" stroke-width="0" y2="14.75" stroke="none" x1="50.4" x2="50.4"/>
<rect height="0.699999" width="0.699999" fill="none" class="terminal" id="connector46terminal" stroke-width="0" x="50.0499" stroke="none" y="-0.349999"/>
<line stroke-linecap="round" fill="none" class="pin" id="connector87pin" y1="0.349999" stroke-width="0.699999" y2="14.75" stroke="#787878" x1="50.4" x2="50.4"/>
<g transform="matrix(1, 0, 0, 1, 51.0999, 16.15)">
<g>
<g transform="rotate(270)">
<g>
<text text-anchor="end" fill="#8c8c8c" class="text" font-family="'Droid Sans'" stroke-width="0" stroke="none" x="0" font-size="3.49999" y="0">5V</text>
</g>
</g>
</g>
</g>
<g height="0.699999" width="0.699999" fill="none" class="terminal" id="connector87terminal" stroke-width="0" x="50.0499" stroke="none" y="-0.349999"/>
<line stroke-linecap="round" fill="none" class="pin" id="connector90pin" y1="0.349999" stroke-width="0.699999" y2="14.75" stroke="#787878" x1="64.8" x2="64.8"/>
<g transform="matrix(1, 0, 0, 1, 65.4999, 16.15)">
<g>
<g transform="rotate(270)">
<g>
<text text-anchor="end" fill="#8c8c8c" class="text" font-family="'Droid Sans'" stroke-width="0" stroke="none" x="0" font-size="3.49999" y="0">VIN</text>
</g>
</g>
</g>
</g>
<g height="0.699999" width="0.699999" fill="none" class="terminal" id="connector90terminal" stroke-width="0" x="64.4499" stroke="none" y="-0.349999"/>
<text text-anchor="middle" fill="#000000" class="text" id="label" font-family="'Droid Sans'" stroke-width="0" stroke="none" x="54.4501" font-size="4.25001" y="76.4498">Arduino</text>
<text text-anchor="middle" fill="#000000" class="text" id="label" font-family="'Droid Sans'" stroke-width="0" stroke="none" x="54.4501" font-size="4.25001" y="80.9833">Uno</text>
<text text-anchor="middle" fill="#000000" class="text" id="label" font-family="'Droid Sans'" stroke-width="0" stroke="none" x="54.4501" font-size="4.25001" y="85.5167">(Rev3)</text>
</g>
</g></g><g partID='57960'><g transform='translate(205.702,174.117)' ><g transform='matrix(0,-1,1,0,0,0)'  ><g id="schematic" xmlns="http://www.w3.org/2000/svg">
<line stroke-linecap="round" class="other" xmlns="http://www.w3.org/2000/svg" y1="3.096" stroke-width="0.432002" y2="0.216" stroke="#000000" x1="7.55002" x2="8.63003"/>
<line stroke-linecap="round" class="other" xmlns="http://www.w3.org/2000/svg" y1="0.216" stroke-width="0.432002" y2="5.976" stroke="#000000" x1="8.63003" x2="10.43"/>
<line stroke-linecap="round" class="other" xmlns="http://www.w3.org/2000/svg" y1="5.976" stroke-width="0.432002" y2="0.216" stroke="#000000" x1="10.43" x2="12.23"/>
<line stroke-linecap="round" class="other" xmlns="http://www.w3.org/2000/svg" y1="0.216" stroke-width="0.432002" y2="5.976" stroke="#000000" x1="12.23" x2="14.03"/>
<line stroke-linecap="round" class="other" xmlns="http://www.w3.org/2000/svg" y1="5.976" stroke-width="0.432002" y2="0.216" stroke="#000000" x1="14.03" x2="15.8301"/>
<line stroke-linecap="round" class="other" xmlns="http://www.w3.org/2000/svg" y1="0.216" stroke-width="0.432002" y2="5.976" stroke="#000000" x1="15.8301" x2="17.6301"/>
<line stroke-linecap="round" class="other" xmlns="http://www.w3.org/2000/svg" y1="5.976" stroke-width="0.432002" y2="0.216" stroke="#000000" x1="17.6301" x2="19.4301"/>
<line stroke-linecap="round" class="other" xmlns="http://www.w3.org/2000/svg" y1="0.216" stroke-width="0.432002" y2="5.976" stroke="#000000" x1="19.4301" x2="21.2301"/>
<line stroke-linecap="round" class="other" xmlns="http://www.w3.org/2000/svg" y1="5.976" stroke-width="0.432002" y2="3.096" stroke="#000000" x1="21.2301" x2="21.9501"/>
<line stroke-linecap="round" class="pin" id="connector1pin" xmlns="http://www.w3.org/2000/svg" connectorname="2" y1="3.096" stroke-width="0.700001" y2="3.096" stroke="#787878" x1="29.1502" x2="21.9501"/>
<g height="0.000283465" width="0.000283466" fill="none" class="terminal" id="connector1terminal" xmlns="http://www.w3.org/2000/svg" stroke-width="0" x="29.1502" stroke="none" y="3.096"/>
<text text-anchor="middle" fill="#8c8c8c" class="text" xmlns="http://www.w3.org/2000/svg" font-family="'Droid Sans'" stroke-width="0" stroke="none" x="25.5501" font-size="2.50001" y="2.046">2</text>
<line stroke-linecap="round" class="pin" id="connector0pin" xmlns="http://www.w3.org/2000/svg" connectorname="1" y1="3.096" stroke-width="0.700001" y2="3.096" stroke="#787878" x1="0.350001" x2="7.55002"/>
<g height="0.000283465" width="0.000283466" fill="none" class="terminal" id="connector0terminal" xmlns="http://www.w3.org/2000/svg" stroke-width="0" x="0.350001" stroke="none" y="3.096"/>
<text text-anchor="middle" fill="#8c8c8c" class="text" xmlns="http://www.w3.org/2000/svg" font-family="'Droid Sans'" stroke-width="0" stroke="none" x="3.95001" font-size="2.50001" y="2.046">1</text>
</g>
</g></g></g><g partID='69350'><line stroke-linecap='round' stroke='#ff7300' x1='208.798' y1='144.967' x2='208.798' y2='144.967' stroke-width='0.4' /></g><g partID='68420'><line stroke-linecap='round' stroke='#404040' x1='208.798' y1='123.367' x2='172.839' y2='123.366' stroke-width='0.699998' /></g><g partID='68520'><line stroke-linecap='round' stroke='#404040' x1='172.839' y1='123.366' x2='172.798' y2='123.367' stroke-width='0.699998' /></g><g partID='68540'><line stroke-linecap='round' stroke='#404040' x1='21.632' y1='72.9821' x2='64.7156' y2='72.9462' stroke-width='0.699998' /></g><g partID='68620'><line stroke-linecap='round' stroke='#404040' x1='64.7156' y1='72.9462' x2='64.7985' y2='72.9671' stroke-width='0.699998' /></g><g partID='68640'><line stroke-linecap='round' stroke='#404040' x1='115.198' y1='8.16714' x2='115.136' y2='8.14685' stroke-width='0.699998' /></g><g partID='68660'><line stroke-linecap='round' stroke='#404040' x1='115.136' y1='8.14685' x2='115.136' y2='1.05067' stroke-width='0.699998' /></g><g partID='68680'><line stroke-linecap='round' stroke='#404040' x1='115.136' y1='1.05067' x2='14.4821' y2='1.05067' stroke-width='0.699998' /></g><g partID='68700'><line stroke-linecap='round' stroke='#404040' x1='14.4821' y1='1.05067' x2='14.3985' y2='72.9671' stroke-width='0.699998' /></g><g partID='68960'><line stroke-linecap='round' stroke='#404040' x1='122.398' y1='173.767' x2='122.419' y2='173.787' stroke-width='0.699998' /></g><circle  fill="black" cx="122.419" cy="173.787" r="1.44" stroke-width="0" stroke="none" /><g partID='69000'><line stroke-linecap='round' stroke='#404040' x1='122.419' y1='173.787' x2='208.88' y2='173.787' stroke-width='0.699998' /></g><g partID='69020'><line stroke-linecap='round' stroke='#404040' x1='208.88' y1='173.787' x2='208.798' y2='173.767' stroke-width='0.699998' /></g><g partID='69060'><line stroke-linecap='round' stroke='#404040' x1='14.4' y1='115.655' x2='14.4821' y2='173.787' stroke-width='0.699998' /></g><g partID='69180'><line stroke-linecap='round' stroke='#404040' x1='14.4821' y1='173.787' x2='122.419' y2='173.787' stroke-width='0.699998' /></g><g partID='57960' id='partLabel'><g transform='translate(223.382,152.326)' ><g transform='matrix(0,1,-1,0,0,0)'  ><g font-size='5' font-style='normal' font-weight='normal' fill='#000000' font-family="'DroidSans'" id='schematicLabel' fill-opacity='1' stroke='none' ><text x='0' y='3.75'>R1</text><text x='0' y='8.75'>220&#x3a9;</text></g></g></g></g><g partID='67310' id='partLabel'><g transform='translate(212.578,111.951)' ><g font-size='5' font-style='normal' font-weight='normal' fill='#000000' font-family="'DroidSans'" id='schematicLabel' fill-opacity='1' stroke='none' ><text x='0' y='3.75'>LED1</text><text x='0' y='8.75'>Red (633nm)</text></g></g></g><g partID='67660' id='partLabel'><g transform='translate(28.8,61.2551)' ><g font-size='5' font-style='normal' font-weight='normal' fill='#000000' font-family="'DroidSans'" id='schematicLabel' fill-opacity='1' stroke='none' ><text x='0' y='3.75'>R2</text><text x='0' y='8.75'>10k&#x3a9;</text></g></g></g><g partID='57520' id='partLabel'><g transform='translate(132.089,0.139498)' ><g font-size='5' font-style='normal' font-weight='normal' fill='#000000' font-family="'DroidSans'" id='schematicLabel' fill-opacity='1' stroke='none' ><text x='0' y='3.75'>5. Sinais PWM</text></g></g></g></svg>